<svg xmlns="http://www.w3.org/2000/svg" viewBox="0 0 64 64" role="img" aria-label="ROE">
  <rect width="64" height="64" rx="16" fill="#f2eee5"/>
  <rect x="6" y="6" width="52" height="52" rx="13" fill="none" stroke="#ded4c3" stroke-width="3"/>
  <path d="M18 24h28v5H18z" fill="#61442f"/>
  <path d="M20 18c0-4 5-7 12-7s12 3 12 7v7c0 6-5 10-12 10s-12-4-12-10z" fill="#f68b9e" stroke="#61442f" stroke-width="3"/>
  <ellipse cx="32" cy="18" rx="12" ry="5.5" fill="#fff8f2" stroke="#61442f" stroke-width="3"/>
  <circle cx="28" cy="18" r="1.4" fill="#9f4d3f"/>
  <circle cx="34" cy="18" r="1.4" fill="#586b48"/>
  <path d="M19 47V37h6.5c3.3 0 5.2 1.7 5.2 4.2 0 1.8-1 3.1-2.8 3.8l3.8 2h-5l-3.2-1.8V47zm4-5h2.1c1.1 0 1.7-.5 1.7-1.3s-.6-1.3-1.7-1.3H23z" fill="#61442f"/>
  <path d="M35 47V37h10v2.6h-6v1.2h5.3v2.5H39v1.1h6.2V47z" fill="#61442f"/>
</svg>
